<?xml version="1.0" encoding="UTF-8" standalone="no"?>
<!-- Created with Inkscape (http://www.inkscape.org/) -->

<svg
   version="1.1"
   id="svg2"
   xml:space="preserve"
   width="553.96533"
   height="170.64532"
   viewBox="0 0 553.96533 170.64532"
   xmlns="http://www.w3.org/2000/svg"
   xmlns:svg="http://www.w3.org/2000/svg"
   xmlns:xlink="http://www.w3.org/1999/xlink"
   xmlns:rdf="http://www.w3.org/1999/02/22-rdf-syntax-ns#"
   xmlns:cc="http://creativecommons.org/ns#"
   xmlns:dc="http://purl.org/dc/elements/1.1/"><metadata
     id="metadata8"><rdf:RDF><cc:Work
         rdf:about=""><dc:format>image/svg+xml</dc:format><dc:type
           rdf:resource="http://purl.org/dc/dcmitype/StillImage" /></cc:Work></rdf:RDF></metadata><defs
     id="defs6"><linearGradient
       x1="0"
       y1="0"
       x2="1"
       y2="0"
       gradientUnits="userSpaceOnUse"
       gradientTransform="matrix(-139.45511,-135.52185,-135.52185,139.45511,177.4727,131.75308)"
       spreadMethod="pad"
       id="linearGradient28"><stop
         style="stop-opacity:1;stop-color:#00afbc"
         offset="0"
         id="stop24" /><stop
         style="stop-opacity:1;stop-color:#205374"
         offset="1"
         id="stop26" /></linearGradient><clipPath
       clipPathUnits="userSpaceOnUse"
       id="clipPath38"><path
         d="M 0,127.984 H 415.474 V 0 H 0 Z"
         id="path36" /></clipPath></defs><a xlink:href= "http://nlnet.nl/NGI0" xlink:title="NGI Zero"><g
     id="g10"
     transform="matrix(1.3333333,0,0,-1.3333333,0,170.64533)"><path
       id="path30"
       style="fill:#000000;fill-opacity:1;stroke:none;stroke-width:1.33333"
       d="M 33.636719 18.90625 C 25.531386 18.90625 18.902344 25.536625 18.902344 33.640625 L 18.902344 137.00391 C 18.902344 145.10924 25.531386 151.73828 33.636719 151.73828 L 253.68359 151.73828 C 261.78759 151.73828 268.41797 145.10791 268.41797 137.00391 L 268.41797 112.6582 C 268.41797 109.9622 269.48848 107.3748 271.39648 105.4668 L 283.52539 93.337891 C 286.91206 89.952557 286.90248 84.462557 283.50781 81.087891 L 271.41797 69.064453 C 269.49797 67.156453 268.41797 64.560182 268.41797 61.853516 L 268.41797 33.640625 C 268.41797 25.536625 261.78759 18.90625 253.68359 18.90625 L 33.636719 18.90625 z M 177.47656 41.369141 C 184.92323 41.369141 191.68324 42.624813 197.75391 45.132812 C 200.38591 46.220812 202.83685 47.522443 205.10352 49.037109 C 209.90885 52.246443 210.16344 59.31799 205.52344 62.972656 C 202.5461 65.31799 198.30102 65.350505 195.17969 63.201172 C 190.26635 59.817172 184.6886 58.125 178.44727 58.125 C 173.02327 58.125 168.208 59.259438 164 61.523438 C 159.78933 63.792771 156.51011 66.987854 154.16211 71.117188 C 151.81411 75.245187 150.64258 79.980932 150.64258 85.322266 C 150.64258 90.584932 151.81411 95.280203 154.16211 99.408203 C 156.51011 103.5362 159.76817 106.75388 163.9375 109.06055 C 168.1055 111.36721 172.86241 112.52148 178.20508 112.52148 C 181.31041 112.52148 184.24639 112.15511 187.01172 111.42578 C 189.95305 110.64978 192.19689 108.43244 193.07422 105.64844 C 193.38355 104.66177 192.62646 103.65625 191.5918 103.65625 C 185.94246 103.65625 181.40668 98.895969 181.77734 93.167969 C 182.11601 87.941302 186.68907 83.988281 191.92773 83.988281 L 201.63867 83.988281 C 201.72534 83.988281 201.8092 83.997333 201.89453 84 C 201.9812 83.997333 202.06506 83.988281 202.15039 83.988281 L 202.82617 83.988281 C 207.60351 83.988281 211.47461 87.858766 211.47461 92.634766 L 211.47461 104.69727 C 211.47461 114.61327 205.10091 123.49173 195.62891 126.42773 C 195.56891 126.4464 195.50727 126.46571 195.44727 126.48438 C 189.37527 128.34571 183.26395 129.27734 177.11328 129.27734 C 168.28928 129.27734 160.35712 127.39619 153.31445 123.63086 C 146.27179 119.86686 140.7469 114.64546 136.74023 107.9668 C 132.73357 101.28813 130.73047 93.742265 130.73047 85.322266 C 130.73047 76.904933 132.73357 69.355068 136.74023 62.677734 C 140.7469 55.999068 146.31021 50.778292 153.43555 47.015625 C 160.55555 43.251625 168.57123 41.369141 177.47656 41.369141 z M 52.535156 42.826172 L 54.492188 42.826172 C 57.404187 42.826172 60.161859 44.131432 62.005859 46.384766 L 94.185547 85.683594 C 96.588213 88.619594 101.3457 86.920286 101.3457 83.126953 L 101.3457 52.539062 C 101.3457 47.173729 105.69521 42.826172 111.06055 42.826172 C 116.42588 42.826172 120.77344 47.173729 120.77344 52.539062 L 120.77344 118.10742 C 120.77344 123.47142 116.42588 127.82031 111.06055 127.82031 L 109.21875 127.82031 C 106.31075 127.82031 103.55627 126.51815 101.71094 124.27148 L 69.404297 84.931641 C 66.998964 82.002307 62.248047 83.703474 62.248047 87.494141 L 62.248047 118.10742 C 62.248047 123.47142 57.900489 127.82031 52.535156 127.82031 C 47.171156 127.82031 42.820312 123.47142 42.820312 118.10742 L 42.820312 52.539062 C 42.820312 47.173729 47.171156 42.826172 52.535156 42.826172 z M 234.66406 42.826172 C 240.09606 42.826172 244.49805 47.228156 244.49805 52.660156 L 244.49805 117.98438 C 244.49805 123.41637 240.09606 127.81836 234.66406 127.81836 C 229.23206 127.81836 224.83008 123.41637 224.83008 117.98438 L 224.83008 52.660156 C 224.83008 47.228156 229.23206 42.826172 234.66406 42.826172 z "
       transform="matrix(0.75000002,0,0,-0.75000002,0,127.984)" /><g
       id="g40"
       transform="translate(175.9982,95.8645)"
       style="fill:#000000" /><g
       id="g44"
       transform="translate(152.1193,64.9934)"
       style="fill:#000000" /><g
       aria-label="Z E R O"
       transform="scale(1,-1)"
       style="font-variant:normal;font-weight:600;font-stretch:normal;font-size:31.76000023px;font-family:'Montserrat SemiBold';-inkscape-font-specification:Montserrat-SemiBold;font-variant-ligatures:normal;font-variant-caps:normal;font-variant-numeric:normal;font-feature-settings:normal;text-align:start;writing-mode:lr-tb;text-anchor:start;fill:#000000;fill-opacity:0.7171717;fill-rule:nonzero;stroke:none"
       id="text56"><path
         d="m 243.58117,-73.015206 h 19.46231 v 3.613321 l -12.42176,15.02707 h 12.77844 v 4.512774 h -20.17567 v -3.613321 l 12.42176,-15.02707 h -12.06508 z"
         style="fill:#000000"
         id="path2325" /><path
         d="m 278.7684,-73.015206 h 16.11262 v 4.512774 h -10.14211 v 4.311172 h 9.5373 v 4.512773 h -9.5373 v 5.303672 h 10.48328 v 4.512774 H 278.7684 Z"
         style="fill:#000000"
         id="path2327" /><path
         d="m 320.00367,-62.749034 q 1.87645,0 2.68285,-0.697851 0.82192,-0.697852 0.82192,-2.295157 0,-1.581796 -0.82192,-2.26414 -0.8064,-0.682344 -2.68285,-0.682344 h -2.51226 v 5.939492 z m -2.51226,4.125078 v 8.761915 h -5.97051 v -23.153165 h 9.11859 q 4.57481,0 6.69938,1.535274 2.14008,1.535273 2.14008,4.853945 0,2.295156 -1.11657,3.768399 -1.10105,1.473242 -3.33418,2.171093 1.22512,0.279141 2.18661,1.271641 0.97699,0.976992 1.96949,2.9775 l 3.24113,6.575313 h -6.3582 l -2.82242,-5.753399 q -0.85293,-1.736875 -1.73688,-2.372695 -0.86844,-0.635821 -2.32617,-0.635821 z"
         style="fill:#000000"
         id="path2329" /><path
         d="m 357.57911,-69.107237 q -2.72938,0 -4.23364,2.016016 -1.50425,2.016015 -1.50425,5.675859 0,3.644336 1.50425,5.660352 1.50426,2.016015 4.23364,2.016015 2.74488,0 4.24914,-2.016015 1.50426,-2.016016 1.50426,-5.660352 0,-3.659844 -1.50426,-5.675859 -1.50426,-2.016016 -4.24914,-2.016016 z m 0,-4.32668 q 5.58281,0 8.7464,3.19461 3.1636,3.194609 3.1636,8.823945 0,5.613828 -3.1636,8.808438 -3.16359,3.194609 -8.7464,3.194609 -5.56731,0 -8.74641,-3.194609 -3.16359,-3.19461 -3.16359,-8.808438 0,-5.629336 3.16359,-8.823945 3.1791,-3.19461 8.74641,-3.19461 z"
         style="fill:#000000"
         id="path2331" /></g></g></a></svg>
