<?xml version="1.0" encoding="UTF-8" standalone="no"?>
<svg
   version="1.1"
   viewBox="0 0 720 720"
   height="4096"
   width="4096"
   xmlns="http://www.w3.org/2000/svg"
   xmlns:svg="http://www.w3.org/2000/svg"
   xmlns:rdf="http://www.w3.org/1999/02/22-rdf-syntax-ns#"
   xmlns:cc="http://creativecommons.org/ns#"
   xmlns:dc="http://purl.org/dc/elements/1.1/">
  <rect
     style="fill:#000000;fill-opacity:1;stroke:none;"
     width="720"
     height="720"
     x="0"
     y="0"
     ry="0" />
  <path
     d="m 362.49305,270.00387 c -5.04185,0.12735 -9.88901,3.35513 -12.54371,7.95321 l -66.22427,114.7055 c -3.77561,6.53951 -2.9353,15.5366 3.96128,19.51833 l 63.67875,36.76289 c 0.78723,0.45451 1.5936,0.79623 2.4066,1.0562 l 0.47396,-13.08713 -60.62862,-35.0039 c -0.0706,-0.0406 -0.82738,-1.22804 0.37795,-3.31572 l 66.22629,-114.70753 c 1.20534,-2.08769 2.61186,-2.02445 2.68239,-1.98371 l 61.21905,35.34304 h 14.37827 c -0.59088,-3.58379 -2.52534,-6.84979 -5.98992,-8.85006 l -63.6767,-36.76493 c -1.72415,-0.99544 -3.53137,-1.5054 -5.33007,-1.60984 -0.33725,-0.0195 -0.67513,-0.0248 -1.01125,-0.0163 z"
     style="fill:#ffffff;fill-opacity:1;fill-rule:nonzero;stroke:none;" />
</svg>
