<?xml version="1.0" encoding="UTF-8" standalone="no"?>
<svg
   xmlns:dc="http://purl.org/dc/elements/1.1/"
   xmlns:cc="http://creativecommons.org/ns#"
   xmlns:rdf="http://www.w3.org/1999/02/22-rdf-syntax-ns#"
   xmlns:svg="http://www.w3.org/2000/svg"
   xmlns="http://www.w3.org/2000/svg"
   id="svg8"
   version="1.1"
   viewBox="0 0 285.75001 508.00001"
   height="1920"
   width="1080">
  <defs
     id="defs2" />
  <metadata
     id="metadata5">
    <rdf:RDF>
      <cc:Work
         rdf:about="">
        <dc:format>image/svg+xml</dc:format>
        <dc:type
           rdf:resource="http://purl.org/dc/dcmitype/StillImage" />
        <dc:title></dc:title>
      </cc:Work>
    </rdf:RDF>
  </metadata>
  <g
     transform="translate(-33.337511,278.73334)"
     id="layer1">
    <g
       style="stroke-width:0.99834239"
       transform="matrix(1.0020995,0,0,1.0012214,80.762537,-205.20737)"
       id="g877">
      <g
         id="g928">
        <path
           style="color:#000000;font-style:normal;font-variant:normal;font-weight:normal;font-stretch:normal;font-size:medium;line-height:normal;font-family:sans-serif;font-variant-ligatures:normal;font-variant-position:normal;font-variant-caps:normal;font-variant-numeric:normal;font-variant-alternates:normal;font-feature-settings:normal;text-indent:0;text-align:start;text-decoration:none;text-decoration-line:none;text-decoration-style:solid;text-decoration-color:#000000;letter-spacing:normal;word-spacing:normal;text-transform:none;writing-mode:lr-tb;direction:ltr;text-orientation:mixed;dominant-baseline:auto;baseline-shift:baseline;text-anchor:start;white-space:normal;shape-padding:0;clip-rule:nonzero;display:inline;overflow:visible;visibility:visible;opacity:1;isolation:auto;mix-blend-mode:normal;color-interpolation:sRGB;color-interpolation-filters:linearRGB;solid-color:#000000;solid-opacity:1;vector-effect:none;fill:#ffffff;fill-opacity:1;fill-rule:nonzero;stroke:none;stroke-width:2.64144802;stroke-linecap:round;stroke-linejoin:round;stroke-miterlimit:4;stroke-dasharray:none;stroke-dashoffset:0;stroke-opacity:1;paint-order:stroke markers fill;color-rendering:auto;image-rendering:auto;shape-rendering:auto;text-rendering:auto;enable-background:accumulate"
           d="m 53.484375,32.796875 c -7.374823,0 -13.416011,6.041206 -13.416016,13.416016 V 209.12109 c -4e-6,7.37483 6.041452,13.41407 13.416016,13.41407 h 83.531245 c 7.37457,0 13.41602,-6.03924 13.41602,-13.41407 V 46.212891 c 0,-7.374812 -6.04119,-13.416016 -13.41602,-13.416016 z m 0,2.640625 h 83.531245 c 5.93518,0 10.7754,4.840208 10.7754,10.775391 V 209.12109 c 0,5.93518 -4.83996,10.77344 -10.7754,10.77344 H 53.484375 c -5.935428,0 -10.775394,-4.83826 -10.775391,-10.77344 V 46.212891 c 4e-6,-5.935184 4.840222,-10.775391 10.775391,-10.775391 z m 0,2.652344 c -4.504521,0 -8.125,3.618075 -8.125,8.123047 V 209.12109 c -10e-7,4.50498 3.620479,8.12305 8.125,8.12305 h 83.531245 c 4.50453,0 8.125,-3.61807 8.125,-8.12305 V 46.212891 c 0,-4.504971 -3.62047,-8.123047 -8.125,-8.123047 z m 0,2.640625 h 83.531245 c 3.12538,0 5.48438,2.357505 5.48438,5.482422 V 209.12109 c 0,3.12493 -2.359,5.48243 -5.48438,5.48243 H 53.484375 c -3.125367,0 -5.484376,-2.3575 -5.484375,-5.48243 V 46.212891 c 0,-3.124917 2.359008,-5.482422 5.484375,-5.482422 z"
           id="rect815-3" />
        <path
           style="color:#000000;font-style:normal;font-variant:normal;font-weight:normal;font-stretch:normal;font-size:medium;line-height:normal;font-family:sans-serif;font-variant-ligatures:normal;font-variant-position:normal;font-variant-caps:normal;font-variant-numeric:normal;font-variant-alternates:normal;font-feature-settings:normal;text-indent:0;text-align:start;text-decoration:none;text-decoration-line:none;text-decoration-style:solid;text-decoration-color:#000000;letter-spacing:normal;word-spacing:normal;text-transform:none;writing-mode:lr-tb;direction:ltr;text-orientation:mixed;dominant-baseline:auto;baseline-shift:baseline;text-anchor:start;white-space:normal;shape-padding:0;clip-rule:nonzero;display:inline;overflow:visible;visibility:visible;opacity:1;isolation:auto;mix-blend-mode:normal;color-interpolation:sRGB;color-interpolation-filters:linearRGB;solid-color:#000000;solid-opacity:1;vector-effect:none;fill:#ffffff;fill-opacity:1;fill-rule:nonzero;stroke:none;stroke-width:2.11315823;stroke-linecap:round;stroke-linejoin:miter;stroke-miterlimit:4;stroke-dasharray:none;stroke-dashoffset:0;stroke-opacity:1;paint-order:stroke markers fill;color-rendering:auto;image-rendering:auto;shape-rendering:auto;text-rendering:auto;enable-background:accumulate"
           d="m 77.699219,68.4375 c -0.894986,0.0246 -1.736526,0.444594 -2.294922,1.144531 l -3.914063,4.761719 -4.763672,-3.914062 c -0.54731,-0.462472 -1.240493,-0.717505 -1.957031,-0.71875 -1.383197,-0.0026 -2.48335,0.918696 -2.875,2.033203 -0.39165,1.114506 -0.110039,2.521493 0.970703,3.384765 l 4.763672,3.914063 -3.902344,4.75 c -0.0014,0.0016 -5.53e-4,0.0042 -0.002,0.0059 -0.620425,0.713467 -0.873645,1.609837 -0.757812,2.404297 0.116094,0.796253 0.54705,1.467617 1.121094,1.939453 0.574043,0.471836 1.315476,0.764865 2.11914,0.72461 0.803664,-0.04026 1.636774,-0.462922 2.216797,-1.212891 l 3.904297,-4.75 4.761719,3.912109 c 0.714923,0.60747 1.607555,0.849733 2.396484,0.730469 0.78893,-0.119264 1.453579,-0.547162 1.921875,-1.117187 0.468297,-0.570026 0.75878,-1.304488 0.722656,-2.101563 -0.03609,-0.796254 -0.446437,-1.625652 -1.179687,-2.208984 l -4.761719,-3.914063 3.914063,-4.761719 c 0.823069,-0.972486 0.899538,-2.282513 0.419922,-3.28125 -0.479362,-0.998207 -1.549583,-1.75812 -2.822266,-1.724609 z m 0.05859,2.113281 c 0.440736,-0.01189 0.708355,0.206844 0.861329,0.525391 0.152973,0.318547 0.155926,0.665413 -0.128907,1.001953 l -0.0039,0.0059 -5.271484,6.41211 6.414062,5.271484 0.0059,0.0059 c 0.318738,0.253119 0.37734,0.443454 0.386718,0.65039 0.0094,0.206936 -0.0775,0.45885 -0.246093,0.664063 -0.16859,0.205212 -0.400648,0.34013 -0.605469,0.371093 -0.204821,0.03096 -0.402722,0.0116 -0.712891,-0.251953 l -0.0059,-0.0059 -6.414063,-5.271484 -5.27539,6.419921 -0.0098,0.01172 c -0.253774,0.328129 -0.442957,0.386094 -0.650391,0.396484 -0.207433,0.01039 -0.464066,-0.07724 -0.671874,-0.248046 -0.207809,-0.170809 -0.343082,-0.405808 -0.373047,-0.611328 -0.02997,-0.205521 -0.01107,-0.402346 0.261718,-0.714844 l 0.01172,-0.01172 5.273438,-6.419922 -6.41211,-5.269531 -0.0059,-0.0059 c -0.387052,-0.309168 -0.423683,-0.670396 -0.296875,-1.03125 0.126808,-0.360853 0.381581,-0.622019 0.876953,-0.621093 0.218947,3.8e-4 0.430419,0.07744 0.597656,0.21875 l 0.0059,0.0059 6.412109,5.269531 5.269531,-6.414062 0.0059,-0.0059 c 0.171066,-0.214428 0.426966,-0.340294 0.701171,-0.347657 z"
           id="path838-6" />
        <path
           style="color:#000000;font-style:normal;font-variant:normal;font-weight:normal;font-stretch:normal;font-size:medium;line-height:normal;font-family:sans-serif;font-variant-ligatures:normal;font-variant-position:normal;font-variant-caps:normal;font-variant-numeric:normal;font-variant-alternates:normal;font-feature-settings:normal;text-indent:0;text-align:start;text-decoration:none;text-decoration-line:none;text-decoration-style:solid;text-decoration-color:#000000;letter-spacing:normal;word-spacing:normal;text-transform:none;writing-mode:lr-tb;direction:ltr;text-orientation:mixed;dominant-baseline:auto;baseline-shift:baseline;text-anchor:start;white-space:normal;shape-padding:0;clip-rule:nonzero;display:inline;overflow:visible;visibility:visible;opacity:1;isolation:auto;mix-blend-mode:normal;color-interpolation:sRGB;color-interpolation-filters:linearRGB;solid-color:#000000;solid-opacity:1;vector-effect:none;fill:#ffffff;fill-opacity:1;fill-rule:nonzero;stroke:none;stroke-width:2.11315823;stroke-linecap:round;stroke-linejoin:miter;stroke-miterlimit:4;stroke-dasharray:none;stroke-dashoffset:0;stroke-opacity:1;paint-order:stroke markers fill;color-rendering:auto;image-rendering:auto;shape-rendering:auto;text-rendering:auto;enable-background:accumulate"
           d="m 119.65625,67.492188 c -0.89571,0.02405 -1.73808,0.444089 -2.29687,1.144531 l -3.91211,4.763672 -4.76563,-3.916016 c -0.54731,-0.462471 -1.24049,-0.717505 -1.95703,-0.71875 -1.3832,-0.0026 -2.48335,0.918697 -2.875,2.033203 -0.3912,1.113236 -0.10894,2.517336 0.96875,3.38086 0.001,9.84e-4 7.2e-4,0.0029 0.002,0.0039 l 4.76563,3.916015 -3.9043,4.75 c -0.62346,0.714244 -0.87586,1.613916 -0.75976,2.410157 0.11609,0.796241 0.54705,1.465669 1.12109,1.9375 0.57404,0.47183 1.31549,0.764858 2.11914,0.724609 0.80365,-0.04025 1.63677,-0.462946 2.2168,-1.212891 l 3.90429,-4.75 4.76172,3.91211 c 0.71492,0.607526 1.60753,0.851676 2.39649,0.732422 0.78895,-0.119255 1.45356,-0.5491 1.92187,-1.119141 0.46831,-0.570041 0.76075,-1.304463 0.72461,-2.101563 -0.0361,-0.797099 -0.44886,-1.625569 -1.18359,-2.208984 l 0.0156,0.0098 -4.77539,-3.923828 3.91406,-4.761719 c 0.82307,-0.972485 0.89954,-2.282514 0.41993,-3.28125 -0.47962,-0.998737 -1.5487,-1.758977 -2.82227,-1.724609 z m 0.0566,2.113281 c 0.44074,-0.01189 0.70836,0.206843 0.86133,0.52539 0.15297,0.318547 0.15593,0.665413 -0.12891,1.001953 l -0.004,0.0059 -5.27149,6.412109 6.41406,5.271485 0.008,0.0059 c 0.31877,0.253122 0.37538,0.443453 0.38476,0.650391 0.009,0.206938 -0.0775,0.460793 -0.24609,0.666015 -0.1686,0.205223 -0.40065,0.338181 -0.60547,0.369141 -0.20482,0.03096 -0.40076,0.01163 -0.71094,-0.251953 l -0.008,-0.0059 -6.41406,-5.271484 -5.27539,6.419922 -0.01,0.01172 c -0.25377,0.328114 -0.44296,0.386095 -0.65039,0.396484 -0.20743,0.01039 -0.46407,-0.07529 -0.67187,-0.246094 -0.20781,-0.170805 -0.34308,-0.405808 -0.37305,-0.611328 -0.03,-0.20552 -0.009,-0.404302 0.26367,-0.716797 l 0.01,-0.01172 5.27343,-6.417968 -6.41211,-5.271485 -0.006,-0.0039 c -0.38705,-0.309168 -0.42368,-0.672349 -0.29687,-1.033203 0.12681,-0.360854 0.38158,-0.622018 0.87695,-0.621094 0.21895,3.81e-4 0.43042,0.07744 0.59766,0.21875 l 0.006,0.0059 6.41406,5.269531 5.26953,-6.412109 0.004,-0.0059 c 0.17107,-0.214428 0.42696,-0.342246 0.70117,-0.349609 z"
           id="path818-7" />
        <path
           style="color:#000000;font-style:normal;font-variant:normal;font-weight:normal;font-stretch:normal;font-size:medium;line-height:normal;font-family:sans-serif;font-variant-ligatures:normal;font-variant-position:normal;font-variant-caps:normal;font-variant-numeric:normal;font-variant-alternates:normal;font-feature-settings:normal;text-indent:0;text-align:start;text-decoration:none;text-decoration-line:none;text-decoration-style:solid;text-decoration-color:#000000;letter-spacing:normal;word-spacing:normal;text-transform:none;writing-mode:lr-tb;direction:ltr;text-orientation:mixed;dominant-baseline:auto;baseline-shift:baseline;text-anchor:start;white-space:normal;shape-padding:0;clip-rule:nonzero;display:inline;overflow:visible;visibility:visible;opacity:1;isolation:auto;mix-blend-mode:normal;color-interpolation:sRGB;color-interpolation-filters:linearRGB;solid-color:#000000;solid-opacity:1;vector-effect:none;fill:#ffffff;fill-opacity:1;fill-rule:nonzero;stroke:none;stroke-width:2.11315846;stroke-linecap:round;stroke-linejoin:miter;stroke-miterlimit:4;stroke-dasharray:none;stroke-dashoffset:0;stroke-opacity:1;paint-order:stroke markers fill;color-rendering:auto;image-rendering:auto;shape-rendering:auto;text-rendering:auto;enable-background:accumulate"
           d="m 115.77148,145.03906 c -4.09248,0.12073 -7.95942,1.10278 -10.64843,3.20117 -2.30577,1.79931 -4.71805,3.42098 -7.5918,3.94922 -2.891157,0.53144 -6.42863,0.13598 -11.570312,-3.00976 -6.566659,-4.01758 -13.252474,-2.84073 -17.935547,-0.19727 -2.327499,1.31381 -4.237958,2.94356 -5.697266,4.48633 -1.445623,1.5283 -2.461531,2.90554 -3.052734,4.26563 -0.38008,0.85047 -0.369097,1.76886 -0.03906,2.49023 0.33151,0.72459 0.925604,1.24569 1.601563,1.53906 0.675958,0.29338 1.463065,0.37188 2.21875,0.11914 0.755685,-0.25274 1.438455,-0.87379 1.798828,-1.73828 l -0.0059,0.0137 c -0.0033,0.008 0.230706,-0.41944 0.564453,-0.88867 0.333748,-0.46923 0.790854,-1.04897 1.332032,-1.62109 1.097202,-1.15996 2.589267,-2.42068 4.269531,-3.36914 3.394584,-1.91616 7.102978,-2.77151 11.773437,0.0859 6.071267,3.71449 11.399799,4.62316 15.841797,3.80665 4.428651,-0.81406 7.737711,-3.19039 10.234371,-5.13868 0.49572,-0.38683 2.11234,-1.05604 4.04688,-1.44336 1.93454,-0.38732 4.23495,-0.56508 6.32422,-0.33203 2.10812,0.23516 4.05761,0.84078 5.36914,1.67578 1.34343,0.85533 2.03546,1.73113 2.32812,3.20118 v -0.008 c 0.17567,0.91401 0.7135,1.65796 1.39649,2.06055 0.68299,0.40259 1.46403,0.49099 2.18359,0.34766 0.71956,-0.14334 1.40622,-0.52464 1.88281,-1.15821 0.4766,-0.63357 0.68994,-1.52594 0.50196,-2.4375 -0.63166,-3.16299 -2.6131,-5.59893 -5.02539,-7.13476 -2.39201,-1.52291 -5.18058,-2.28143 -7.96289,-2.5918 -1.38275,-0.15424 -2.77381,-0.21409 -4.13868,-0.17383 z m 0.0625,2.11328 c 1.26052,-0.0372 2.55433,0.0185 3.8418,0.16211 2.55811,0.28536 5.03142,0.97961 7.06055,2.27149 2.00724,1.27795 3.58406,3.23281 4.08984,5.77344 l 0.002,0.002 v 0.004 c 0.081,0.39301 0.005,0.577 -0.11914,0.74219 -0.12426,0.16519 -0.34943,0.30408 -0.60742,0.35547 -0.25799,0.0514 -0.52114,0.009 -0.69922,-0.0957 -0.17807,-0.10497 -0.31879,-0.24462 -0.39453,-0.63867 v -0.004 -0.004 c -0.40018,-2.01013 -1.59428,-3.50426 -3.26562,-4.56836 -1.70327,-1.08441 -3.9184,-1.73361 -6.27149,-1.99609 -2.37195,-0.26459 -4.84913,-0.0638 -6.97265,0.36133 -2.12352,0.42516 -3.8454,1.00238 -4.9336,1.85156 -2.43661,1.90143 -5.42354,4.00904 -9.316403,4.72461 -3.879509,0.71312 -8.620836,-0.0196 -14.357422,-3.5293 -5.290431,-3.23675 -10.131377,-2.26022 -13.914063,-0.125 -1.908365,1.07722 -3.538847,2.45892 -4.765624,3.75586 -0.620814,0.65632 -1.133839,1.30735 -1.519532,1.84961 -0.385692,0.54226 -0.620384,0.90731 -0.779297,1.27344 l -0.0039,0.006 -0.002,0.008 c -0.156141,0.37457 -0.323164,0.4812 -0.519531,0.54688 -0.196367,0.0657 -0.463891,0.0528 -0.707031,-0.0527 -0.243141,-0.10552 -0.435341,-0.29218 -0.521485,-0.48047 -0.08614,-0.18829 -0.122032,-0.38208 0.04492,-0.75195 l 0.0039,-0.008 0.002,-0.008 c 0.440363,-1.01457 1.305682,-2.2305 2.654297,-3.65624 1.336433,-1.41287 3.095402,-2.91096 5.201172,-4.09961 4.183465,-2.36145 9.920687,-3.43574 15.794922,0.1582 5.452243,3.33574 9.653499,3.91229 13.054687,3.28711 3.418598,-0.6284 6.130508,-2.50663 8.509768,-4.36328 2.14884,-1.67687 5.6265,-2.64034 9.41015,-2.75196 z"
           id="path868-5" />
      </g>
      <g
         id="g936">
        <path
           id="rect815"
           d="m 53.484375,34.117188 c -6.654996,0 -12.095599,5.440706 -12.095603,12.095703 l -1e-4,162.908199 c -4e-6,6.655 5.440707,12.09375 12.095703,12.09375 h 83.531245 c 6.655,0 12.09571,-5.43875 12.09571,-12.09375 l -1e-4,-162.908199 c 0,-6.654997 -5.44061,-12.095703 -12.09561,-12.095703 z m 0,5.292968 h 83.531245 c 3.81495,0 6.80469,2.987791 6.80469,6.802735 V 209.12109 c 0,3.81495 -2.98974,6.80274 -6.80469,6.80274 H 53.484375 c -3.814944,0 -6.804688,-2.98779 -6.804687,-6.80274 V 46.212891 c 0,-3.814944 2.989743,-6.802735 6.804687,-6.802735 z"
           style="color:#000000;font-style:normal;font-variant:normal;font-weight:normal;font-stretch:normal;font-size:medium;line-height:normal;font-family:sans-serif;font-variant-ligatures:normal;font-variant-position:normal;font-variant-caps:normal;font-variant-numeric:normal;font-variant-alternates:normal;font-feature-settings:normal;text-indent:0;text-align:start;text-decoration:none;text-decoration-line:none;text-decoration-style:solid;text-decoration-color:#000000;letter-spacing:normal;word-spacing:normal;text-transform:none;writing-mode:lr-tb;direction:ltr;text-orientation:mixed;dominant-baseline:auto;baseline-shift:baseline;text-anchor:start;white-space:normal;shape-padding:0;clip-rule:nonzero;display:inline;overflow:visible;visibility:visible;opacity:1;isolation:auto;mix-blend-mode:normal;color-interpolation:sRGB;color-interpolation-filters:linearRGB;solid-color:#000000;solid-opacity:1;vector-effect:none;fill:#000000;fill-opacity:1;fill-rule:nonzero;stroke:none;stroke-width:2.64144778;stroke-linecap:round;stroke-linejoin:round;stroke-miterlimit:4;stroke-dasharray:none;stroke-dashoffset:0;stroke-opacity:1;paint-order:stroke markers fill;color-rendering:auto;image-rendering:auto;shape-rendering:auto;text-rendering:auto;enable-background:accumulate" />
        <g
           id="g857"
           style="stroke-width:0.99834239;stroke:none">
          <path
             id="path838"
             transform="matrix(0.26458334,0,0,0.26458334,0,-41.666676)"
             d="m 293.77734,420.13477 a 7.5007497,7.5007497 0 0 0 -5.66211,2.82031 l -17.36328,21.13281 -21.13281,-17.36719 a 7.5007497,7.5007497 0 0 0 -4.82812,-1.77148 7.5007497,7.5007497 0 0 0 -4.69532,13.36133 l 21.13282,17.36718 -17.36133,21.12891 a 7.5007497,7.5007497 0 1 0 11.58398,9.52148 l 17.36328,-21.1289 21.13282,17.36523 a 7.5007497,7.5007497 0 1 0 9.52148,-11.58984 l -21.12891,-17.36523 17.36524,-21.13086 a 7.5007497,7.5007497 0 0 0 -5.92774,-12.34375 z"
             style="color:#000000;font-style:normal;font-variant:normal;font-weight:normal;font-stretch:normal;font-size:medium;line-height:normal;font-family:sans-serif;font-variant-ligatures:normal;font-variant-position:normal;font-variant-caps:normal;font-variant-numeric:normal;font-variant-alternates:normal;font-feature-settings:normal;text-indent:0;text-align:start;text-decoration:none;text-decoration-line:none;text-decoration-style:solid;text-decoration-color:#000000;letter-spacing:normal;word-spacing:normal;text-transform:none;writing-mode:lr-tb;direction:ltr;text-orientation:mixed;dominant-baseline:auto;baseline-shift:baseline;text-anchor:start;white-space:normal;shape-padding:0;clip-rule:nonzero;display:inline;overflow:visible;visibility:visible;opacity:1;isolation:auto;mix-blend-mode:normal;color-interpolation:sRGB;color-interpolation-filters:linearRGB;solid-color:#000000;solid-opacity:1;vector-effect:none;fill:#000000;fill-opacity:1;fill-rule:nonzero;stroke:none;stroke-width:7.98673916;stroke-linecap:round;stroke-linejoin:miter;stroke-miterlimit:4;stroke-dasharray:none;stroke-dashoffset:0;stroke-opacity:1;paint-order:stroke markers fill;color-rendering:auto;image-rendering:auto;shape-rendering:auto;text-rendering:auto;enable-background:accumulate" />
        </g>
        <g
           style="stroke-width:0.99834239;stroke:none"
           id="use859"
           transform="translate(41.955358,-0.9449405)">
          <path
             style="color:#000000;font-style:normal;font-variant:normal;font-weight:normal;font-stretch:normal;font-size:medium;line-height:normal;font-family:sans-serif;font-variant-ligatures:normal;font-variant-position:normal;font-variant-caps:normal;font-variant-numeric:normal;font-variant-alternates:normal;font-feature-settings:normal;text-indent:0;text-align:start;text-decoration:none;text-decoration-line:none;text-decoration-style:solid;text-decoration-color:#000000;letter-spacing:normal;word-spacing:normal;text-transform:none;writing-mode:lr-tb;direction:ltr;text-orientation:mixed;dominant-baseline:auto;baseline-shift:baseline;text-anchor:start;white-space:normal;shape-padding:0;clip-rule:nonzero;display:inline;overflow:visible;visibility:visible;opacity:1;isolation:auto;mix-blend-mode:normal;color-interpolation:sRGB;color-interpolation-filters:linearRGB;solid-color:#000000;solid-opacity:1;vector-effect:none;fill:#000000;fill-opacity:1;fill-rule:nonzero;stroke:none;stroke-width:7.98673916;stroke-linecap:round;stroke-linejoin:miter;stroke-miterlimit:4;stroke-dasharray:none;stroke-dashoffset:0;stroke-opacity:1;paint-order:stroke markers fill;color-rendering:auto;image-rendering:auto;shape-rendering:auto;text-rendering:auto;enable-background:accumulate"
             d="m 293.77734,420.13477 a 7.5007497,7.5007497 0 0 0 -5.66211,2.82031 l -17.36328,21.13281 -21.13281,-17.36719 a 7.5007497,7.5007497 0 0 0 -4.82812,-1.77148 7.5007497,7.5007497 0 0 0 -4.69532,13.36133 l 21.13282,17.36718 -17.36133,21.12891 a 7.5007497,7.5007497 0 1 0 11.58398,9.52148 l 17.36328,-21.1289 21.13282,17.36523 a 7.5007497,7.5007497 0 1 0 9.52148,-11.58984 l -21.12891,-17.36523 17.36524,-21.13086 a 7.5007497,7.5007497 0 0 0 -5.92774,-12.34375 z"
             transform="matrix(0.26458334,0,0,0.26458334,0,-41.666676)"
             id="path818" />
        </g>
        <path
           id="path868"
           d="m 115.80273,146.0957 c -3.93807,0.11617 -7.61036,1.08894 -10.02929,2.97657 -2.34251,1.82798 -4.90461,3.57793 -8.050784,4.15625 -3.146173,0.57831 -7.015537,0.0923 -12.3125,-3.14844 -6.220446,-3.80576 -12.431965,-2.68019 -16.865234,-0.17774 -2.216635,1.25123 -4.051349,2.81515 -5.449219,4.29297 -1.39787,1.47782 -2.339823,2.77487 -2.855469,3.96289 a 1.9845734,1.9845734 0 1 0 3.640625,1.58008 c 0.155563,-0.35841 0.935666,-1.58796 2.097657,-2.8164 1.16199,-1.22845 2.723261,-2.54966 4.517578,-3.5625 3.588634,-2.02569 7.863305,-2.94164 12.84375,0.10546 5.903926,3.6121 10.938854,4.43279 15.099609,3.66797 4.160757,-0.76481 7.308747,-3.00678 9.775387,-4.93164 1.58391,-1.23601 6.67746,-2.49178 11.13868,-1.99414 2.2306,0.24882 4.31291,0.87623 5.82031,1.83594 1.50739,0.95971 2.45045,2.14467 2.79687,3.88476 a 1.9845734,1.9845734 0 1 0 3.89258,-0.77539 c -0.56804,-2.85333 -2.34803,-5.04963 -4.55859,-6.45703 -2.21057,-1.40739 -4.84151,-2.13378 -7.51172,-2.43164 -1.33511,-0.14893 -2.67755,-0.20669 -3.99024,-0.16797 z"
           style="color:#000000;font-style:normal;font-variant:normal;font-weight:normal;font-stretch:normal;font-size:medium;line-height:normal;font-family:sans-serif;font-variant-ligatures:normal;font-variant-position:normal;font-variant-caps:normal;font-variant-numeric:normal;font-variant-alternates:normal;font-feature-settings:normal;text-indent:0;text-align:start;text-decoration:none;text-decoration-line:none;text-decoration-style:solid;text-decoration-color:#000000;letter-spacing:normal;word-spacing:normal;text-transform:none;writing-mode:lr-tb;direction:ltr;text-orientation:mixed;dominant-baseline:auto;baseline-shift:baseline;text-anchor:start;white-space:normal;shape-padding:0;clip-rule:nonzero;display:inline;overflow:visible;visibility:visible;opacity:1;isolation:auto;mix-blend-mode:normal;color-interpolation:sRGB;color-interpolation-filters:linearRGB;solid-color:#000000;solid-opacity:1;vector-effect:none;fill:#000000;fill-opacity:1;fill-rule:nonzero;stroke:none;stroke-width:2.11315846;stroke-linecap:round;stroke-linejoin:miter;stroke-miterlimit:4;stroke-dasharray:none;stroke-dashoffset:0;stroke-opacity:1;paint-order:stroke markers fill;color-rendering:auto;image-rendering:auto;shape-rendering:auto;text-rendering:auto;enable-background:accumulate" />
      </g>
    </g>
  </g>
</svg>
