<?xml version="1.0" encoding="UTF-8" standalone="no"?>
<svg
   xmlns:dc="http://purl.org/dc/elements/1.1/"
   xmlns:cc="http://creativecommons.org/ns#"
   xmlns:rdf="http://www.w3.org/1999/02/22-rdf-syntax-ns#"
   xmlns:svg="http://www.w3.org/2000/svg"
   xmlns="http://www.w3.org/2000/svg"
   xmlns:sodipodi="http://sodipodi.sourceforge.net/DTD/sodipodi-0.dtd"
   xmlns:inkscape="http://www.inkscape.org/namespaces/inkscape"
   id="svg8"
   version="1.1"
   viewBox="0 0 74.113577 73.978384"
   height="279.60333"
   width="280.11429"
   sodipodi:docname="sad.svg"
   inkscape:version="1.0 (4035a4fb49, 2020-05-01)">
  <sodipodi:namedview
     inkscape:pagecheckerboard="true"
     inkscape:document-rotation="0"
     pagecolor="#ffffff"
     bordercolor="#666666"
     borderopacity="1"
     objecttolerance="10"
     gridtolerance="10"
     guidetolerance="10"
     inkscape:pageopacity="0"
     inkscape:pageshadow="2"
     inkscape:window-width="1760"
     inkscape:window-height="1407"
     id="namedview19"
     showgrid="false"
     fit-margin-top="0"
     fit-margin-left="0"
     fit-margin-right="0"
     fit-margin-bottom="0"
     inkscape:zoom="2.9698485"
     inkscape:cx="121.26914"
     inkscape:cy="249.42173"
     inkscape:window-x="2476"
     inkscape:window-y="605"
     inkscape:window-maximized="0"
     inkscape:current-layer="svg8" />
  <defs
     id="defs2" />
  <metadata
     id="metadata5">
    <rdf:RDF>
      <cc:Work
         rdf:about="">
        <dc:format>image/svg+xml</dc:format>
        <dc:type
           rdf:resource="http://purl.org/dc/dcmitype/StillImage" />
        <dc:title></dc:title>
      </cc:Work>
    </rdf:RDF>
  </metadata>
  <g
     transform="translate(-18.969478,-26.925074)"
     id="g884">
    <path
       style="color:#000000;font-style:normal;font-variant:normal;font-weight:normal;font-stretch:normal;font-size:medium;line-height:normal;font-family:sans-serif;font-variant-ligatures:normal;font-variant-position:normal;font-variant-caps:normal;font-variant-numeric:normal;font-variant-alternates:normal;font-feature-settings:normal;text-indent:0;text-align:start;text-decoration:none;text-decoration-line:none;text-decoration-style:solid;text-decoration-color:#000000;letter-spacing:normal;word-spacing:normal;text-transform:none;writing-mode:lr-tb;direction:ltr;text-orientation:mixed;dominant-baseline:auto;baseline-shift:baseline;text-anchor:start;white-space:normal;shape-padding:0;clip-rule:nonzero;display:inline;overflow:visible;visibility:visible;isolation:auto;mix-blend-mode:normal;color-interpolation:sRGB;color-interpolation-filters:linearRGB;solid-color:#000000;solid-opacity:1;vector-effect:none;fill:#000000;fill-opacity:1;fill-rule:nonzero;stroke:none;stroke-width:2.11667;stroke-linecap:round;stroke-linejoin:miter;stroke-miterlimit:4;stroke-dasharray:none;stroke-dashoffset:0;stroke-opacity:1;paint-order:stroke markers fill;color-rendering:auto;image-rendering:auto;shape-rendering:auto;text-rendering:auto;enable-background:accumulate"
       d="m 44.513438,35.68416 c -0.896866,0.02463 -1.740172,0.445137 -2.299741,1.145928 l -3.92228,4.767535 -4.773674,-3.918842 c -0.548459,-0.463037 -1.243097,-0.718382 -1.961139,-0.719628 -1.386101,-0.0026 -2.488564,0.919818 -2.881036,2.035686 -0.392473,1.115868 -0.11027,2.524573 0.972741,3.388899 l 4.773673,3.918844 -3.910537,4.755802 c -0.0014,0.0016 -5.54e-4,0.0042 -0.002,0.0059 -0.621728,0.714338 -0.875479,1.611803 -0.759403,2.407234 0.116337,0.797225 0.548198,1.469409 1.123447,1.941821 0.575249,0.472413 1.318238,0.7658 2.12359,0.725495 0.805351,-0.04031 1.64021,-0.463487 2.221451,-1.214372 l 3.912494,-4.755802 4.771716,3.916888 c 0.716424,0.608212 1.61093,0.85077 2.401515,0.731361 0.790587,-0.11941 1.456631,-0.547831 1.92591,-1.118552 0.469281,-0.570722 0.760373,-1.306081 0.724174,-2.10413 -0.03617,-0.797226 -0.447375,-1.627637 -1.182164,-2.211682 l -4.771716,-3.918843 3.92228,-4.767535 c 0.824793,-0.973667 0.901423,-2.285294 0.4208,-3.285251 -0.480369,-0.999426 -1.552836,-1.760267 -2.828191,-1.726715 z m 0.05871,2.115862 c 0.441661,-0.0119 0.709842,0.207096 0.863137,0.526032 0.153294,0.318937 0.156253,0.666226 -0.129178,1.003177 l -0.0039,0.0059 -5.282551,6.419942 6.427528,5.277923 0.0059,0.0059 c 0.319407,0.253428 0.378133,0.443996 0.38753,0.651184 0.0094,0.207189 -0.07766,0.459411 -0.246609,0.664874 -0.168944,0.205463 -0.40149,0.340546 -0.606741,0.371547 -0.205251,0.031 -0.403567,0.01161 -0.714387,-0.252261 l -0.0059,-0.0059 -6.427529,-5.277923 -5.286466,6.427762 -0.0098,0.01174 c -0.254307,0.32853 -0.443887,0.386565 -0.651757,0.396968 -0.207868,0.0104 -0.46504,-0.07733 -0.673284,-0.248349 -0.208246,-0.171018 -0.343803,-0.406304 -0.373831,-0.612075 -0.03003,-0.205772 -0.01109,-0.402837 0.262268,-0.715717 l 0.01174,-0.01173 5.28451,-6.427763 -6.425572,-5.275968 -0.0059,-0.0059 c -0.387864,-0.309545 -0.424572,-0.671215 -0.297498,-1.032509 0.127074,-0.361294 0.382382,-0.622779 0.878794,-0.621852 0.219407,3.81e-4 0.431323,0.07753 0.598911,0.219017 l 0.0059,0.0059 6.425572,5.275968 5.280594,-6.421896 0.0059,-0.0059 c 0.171426,-0.21469 0.427863,-0.340709 0.702644,-0.348081 z"
       id="path838-6" />
    <path
       style="color:#000000;font-style:normal;font-variant:normal;font-weight:normal;font-stretch:normal;font-size:medium;line-height:normal;font-family:sans-serif;font-variant-ligatures:normal;font-variant-position:normal;font-variant-caps:normal;font-variant-numeric:normal;font-variant-alternates:normal;font-feature-settings:normal;text-indent:0;text-align:start;text-decoration:none;text-decoration-line:none;text-decoration-style:solid;text-decoration-color:#000000;letter-spacing:normal;word-spacing:normal;text-transform:none;writing-mode:lr-tb;direction:ltr;text-orientation:mixed;dominant-baseline:auto;baseline-shift:baseline;text-anchor:start;white-space:normal;shape-padding:0;clip-rule:nonzero;display:inline;overflow:visible;visibility:visible;isolation:auto;mix-blend-mode:normal;color-interpolation:sRGB;color-interpolation-filters:linearRGB;solid-color:#000000;solid-opacity:1;vector-effect:none;fill:#000000;fill-opacity:1;fill-rule:nonzero;stroke:none;stroke-width:2.11667;stroke-linecap:round;stroke-linejoin:miter;stroke-miterlimit:4;stroke-dasharray:none;stroke-dashoffset:0;stroke-opacity:1;paint-order:stroke markers fill;color-rendering:auto;image-rendering:auto;shape-rendering:auto;text-rendering:auto;enable-background:accumulate"
       d="m 79.754985,34.737693 c -0.89759,0.02408 -1.741729,0.444631 -2.301692,1.145929 l -3.920323,4.76949 -4.775636,-3.920799 c -0.548459,-0.463036 -1.243094,-0.718381 -1.961139,-0.719628 -1.386104,-0.0026 -2.488563,0.919819 -2.881036,2.035687 -0.392021,1.114595 -0.109168,2.52041 0.970784,3.384989 0.001,9.85e-4 7.22e-4,0.0029 0.002,0.0039 l 4.775636,3.920798 -3.912497,4.755802 c -0.624769,0.715116 -0.877699,1.615887 -0.761355,2.4131 0.116333,0.797214 0.548198,1.467459 1.123443,1.939867 0.575246,0.472406 1.318252,0.765792 2.123589,0.725494 0.805338,-0.0403 1.640207,-0.463512 2.221455,-1.214373 l 3.912487,-4.755801 4.771717,3.916888 c 0.716421,0.608268 1.610905,0.852716 2.401521,0.733317 0.790607,-0.119401 1.456612,-0.549771 1.925905,-1.120508 0.469294,-0.570738 0.762348,-1.306057 0.726132,-2.10413 -0.03618,-0.798073 -0.449803,-1.627555 -1.186075,-2.211682 l 0.01563,0.0098 -4.785415,-3.928621 3.922277,-4.767535 c 0.824798,-0.973673 0.901429,-2.285302 0.420812,-3.285258 -0.480627,-0.999956 -1.551952,-1.761125 -2.828196,-1.726715 z m 0.05672,2.115862 c 0.441665,-0.0119 0.709847,0.207096 0.863138,0.526032 0.153292,0.318936 0.156258,0.666226 -0.12918,1.003177 l -0.004,0.0059 -5.282557,6.419941 6.427526,5.277923 0.008,0.0059 c 0.319439,0.253432 0.376168,0.443995 0.385568,0.651186 0.009,0.207191 -0.07766,0.461356 -0.246607,0.666828 -0.168954,0.205474 -0.401491,0.338594 -0.606741,0.369592 -0.20525,0.031 -0.401601,0.01164 -0.712433,-0.252261 l -0.008,-0.0059 -6.427527,-5.277922 -5.286465,6.427763 -0.01002,0.01173 c -0.254303,0.328515 -0.44389,0.386567 -0.651756,0.396968 -0.207865,0.0104 -0.465044,-0.07538 -0.67328,-0.246394 -0.208247,-0.171014 -0.343801,-0.406304 -0.373834,-0.612075 -0.03006,-0.205771 -0.009,-0.404796 0.264224,-0.717672 l 0.01002,-0.01174 5.284501,-6.425807 -6.425572,-5.277923 -0.006,-0.0039 c -0.387863,-0.309546 -0.42457,-0.67317 -0.297494,-1.034465 0.127077,-0.361295 0.382381,-0.622778 0.878792,-0.621852 0.219409,3.81e-4 0.431323,0.07753 0.598914,0.219017 l 0.006,0.0059 6.427526,5.275967 5.280594,-6.419941 0.004,-0.0059 c 0.171429,-0.21469 0.427856,-0.342664 0.702642,-0.350036 z"
       id="path818-7" />
    <path
       style="color:#000000;font-style:normal;font-variant:normal;font-weight:normal;font-stretch:normal;font-size:medium;line-height:normal;font-family:sans-serif;font-variant-ligatures:normal;font-variant-position:normal;font-variant-caps:normal;font-variant-numeric:normal;font-variant-alternates:normal;font-feature-settings:normal;text-indent:0;text-align:start;text-decoration:none;text-decoration-line:none;text-decoration-style:solid;text-decoration-color:#000000;letter-spacing:normal;word-spacing:normal;text-transform:none;writing-mode:lr-tb;direction:ltr;text-orientation:mixed;dominant-baseline:auto;baseline-shift:baseline;text-anchor:start;white-space:normal;shape-padding:0;clip-rule:nonzero;display:inline;overflow:visible;visibility:visible;isolation:auto;mix-blend-mode:normal;color-interpolation:sRGB;color-interpolation-filters:linearRGB;solid-color:#000000;solid-opacity:1;vector-effect:none;fill:#ffffff;fill-opacity:1;fill-rule:nonzero;stroke:none;stroke-width:2.11667;stroke-linecap:round;stroke-linejoin:miter;stroke-miterlimit:4;stroke-dasharray:none;stroke-dashoffset:0;stroke-opacity:1;paint-order:stroke markers fill;color-rendering:auto;image-rendering:auto;shape-rendering:auto;text-rendering:auto;enable-background:accumulate"
       d="m 44.542869,36.741933 a 1.98874,1.9869974 0 0 0 -1.501245,0.747119 l -4.60368,5.598219 -5.603128,-4.600682 a 1.98874,1.9869974 0 0 0 -1.280122,-0.469276 1.98874,1.9869974 0 0 0 -1.244912,3.539503 l 5.603131,4.600679 -4.603163,5.597185 a 1.98874,1.9869974 0 1 0 3.071363,2.522302 l 4.60368,-5.597183 5.603131,4.600162 a 1.98874,1.9869974 0 1 0 2.524514,-3.070223 l -5.602094,-4.600163 4.604199,-5.597702 a 1.98874,1.9869974 0 0 0 -1.571674,-3.26994 z"
       id="path838" />
    <path
       id="path818"
       d="m 79.782741,35.795838 a 1.98874,1.9869974 0 0 0 -1.501246,0.747119 l -4.603679,5.598219 -5.603129,-4.600682 a 1.98874,1.9869974 0 0 0 -1.280122,-0.469276 1.98874,1.9869974 0 0 0 -1.244912,3.539503 l 5.603131,4.600679 -4.603162,5.597185 a 1.98874,1.9869974 0 1 0 3.071363,2.522302 l 4.603679,-5.597183 5.603132,4.600162 a 1.98874,1.9869974 0 1 0 2.524514,-3.070223 l -5.602095,-4.600163 4.6042,-5.597702 a 1.98874,1.9869974 0 0 0 -1.571674,-3.26994 z"
       style="color:#000000;font-style:normal;font-variant:normal;font-weight:normal;font-stretch:normal;font-size:medium;line-height:normal;font-family:sans-serif;font-variant-ligatures:normal;font-variant-position:normal;font-variant-caps:normal;font-variant-numeric:normal;font-variant-alternates:normal;font-feature-settings:normal;text-indent:0;text-align:start;text-decoration:none;text-decoration-line:none;text-decoration-style:solid;text-decoration-color:#000000;letter-spacing:normal;word-spacing:normal;text-transform:none;writing-mode:lr-tb;direction:ltr;text-orientation:mixed;dominant-baseline:auto;baseline-shift:baseline;text-anchor:start;white-space:normal;shape-padding:0;clip-rule:nonzero;display:inline;overflow:visible;visibility:visible;isolation:auto;mix-blend-mode:normal;color-interpolation:sRGB;color-interpolation-filters:linearRGB;solid-color:#000000;solid-opacity:1;vector-effect:none;fill:#ffffff;fill-opacity:1;fill-rule:nonzero;stroke:none;stroke-width:2.11667;stroke-linecap:round;stroke-linejoin:miter;stroke-miterlimit:4;stroke-dasharray:none;stroke-dashoffset:0;stroke-opacity:1;paint-order:stroke markers fill;color-rendering:auto;image-rendering:auto;shape-rendering:auto;text-rendering:auto;enable-background:accumulate" />
  </g>
  <g
     style="stroke-width:1.07952"
     transform="matrix(0.76118253,0,0,1.1273257,8.8498735,-8.7380624)"
     id="g894">
    <path
       d="m 37.070312,49.945312 c -8.558226,0.201358 -17.153144,1.349813 -25.322265,3.996094 a 0.18823691,0.18823691 0 0 0 -0.0039,0.002 c -4.7712395,1.701266 -9.1719911,4.978042 -11.42187538,9.628907 -0.77246473,1.307417 -0.72802398,3.171218 0.52539063,4.201172 0.001459,0.0012 0.002444,0.0027 0.003906,0.0039 1.4525547,1.379761 4.1489072,1.060714 5.0371094,-0.814453 l 0.00977,-0.01758 c 1.2682911,-2.07157 2.3356284,-4.376733 4.4472655,-5.603515 a 0.18823691,0.18823691 0 0 0 0.0078,-0.0039 c 3.011822,-1.94994 6.646019,-2.577944 10.130859,-3.425782 11.647545,-2.498614 23.651478,-1.453152 35.410156,-0.134765 l -0.0059,-0.002 c 2.422667,0.347972 4.888833,0.462352 7.183594,1.21289 2.314107,0.816912 4.403055,2.494114 5.308593,4.798828 a 0.18823691,0.18823691 0 0 0 0.01563,0.0293 c 1.146767,1.887352 4.092391,1.777418 5.332032,0.05273 l 0.002,-0.0039 c 0.550346,-0.710599 0.653671,-1.54935 0.517578,-2.353515 -0.135674,-0.801691 -0.501121,-1.578401 -0.896485,-2.228516 l -0.0039,-0.0078 C 70.844351,54.563883 65.632385,51.815342 60.457031,51.351562 h -0.0039 c -7.753696,-0.926531 -15.55951,-1.562527 -23.382813,-1.40625 z"
       inkscape:original="M 37.074219 50.132812 C 28.529876 50.333843 19.954148 51.481814 11.806641 54.121094 C 7.0681173 55.810694 2.705321 59.065149 0.484375 63.667969 C -0.247383 64.906489 -0.20125687 66.671809 0.97070312 67.630859 C 2.3290681 68.935069 4.9072096 68.632824 5.7285156 66.865234 C 6.9929136 64.803124 8.0701968 62.447207 10.251953 61.179688 C 13.306052 59.202377 16.963277 58.574246 20.439453 57.728516 C 32.125217 55.220526 44.152312 56.270894 55.916016 57.589844 C 58.326344 57.936044 60.803744 58.047474 63.130859 58.808594 C 65.489303 59.640024 67.625986 61.35011 68.556641 63.71875 C 69.62734 65.48091 72.424041 65.370546 73.580078 63.753906 C 74.61233 62.425536 73.964391 60.648444 73.185547 59.371094 C 70.719888 54.722804 65.560212 51.997183 60.435547 51.539062 C 52.685275 50.612842 44.886106 49.976763 37.074219 50.132812 z "
       inkscape:radius="0.18821809"
       sodipodi:type="inkscape:offset"
       style="color:#000000;font-style:normal;font-variant:normal;font-weight:normal;font-stretch:normal;font-size:medium;line-height:normal;font-family:sans-serif;font-variant-ligatures:normal;font-variant-position:normal;font-variant-caps:normal;font-variant-numeric:normal;font-variant-alternates:normal;font-feature-settings:normal;text-indent:0;text-align:start;text-decoration:none;text-decoration-line:none;text-decoration-style:solid;text-decoration-color:#000000;letter-spacing:normal;word-spacing:normal;text-transform:none;writing-mode:lr-tb;direction:ltr;text-orientation:mixed;dominant-baseline:auto;baseline-shift:baseline;text-anchor:start;white-space:normal;shape-padding:0;clip-rule:nonzero;display:inline;overflow:visible;visibility:visible;isolation:auto;mix-blend-mode:normal;color-interpolation:sRGB;color-interpolation-filters:linearRGB;solid-color:#000000;solid-opacity:1;vector-effect:none;fill:#000000;fill-opacity:1;fill-rule:nonzero;stroke:none;stroke-width:2.28499;stroke-linecap:round;stroke-linejoin:miter;stroke-miterlimit:4;stroke-dasharray:none;stroke-dashoffset:0;stroke-opacity:1;paint-order:stroke markers fill;color-rendering:auto;image-rendering:auto;shape-rendering:auto;text-rendering:auto;enable-background:accumulate"
       id="path888" />
    <path
       id="path868"
       d="m 14.35457,54.415688 c -5.2035763,1.42819 -10.5694103,4.46698 -13.1098233,10.15582 -1.10685497,2.45004 2.613059,4.06312 3.648269,1.58201 1.540261,-1.99479 2.00166,-5.76485 9.6529343,-8.02459 13.10434,-3.87024 24.789567,-3.63774 44.172303,-1.26632 3.70701,0.45355 7.624692,1.06369 10.39916,5.47571 0.503939,2.6192 4.439814,1.83587 3.900753,-0.77634 -1.84157,-5.12639 -6.770062,-8.2433 -12.095652,-8.89952 -18.771885,-2.31307 -32.506191,-2.1062 -46.567944,1.75323 z"
       style="color:#000000;font-style:normal;font-variant:normal;font-weight:normal;font-stretch:normal;font-size:medium;line-height:normal;font-family:sans-serif;font-variant-ligatures:normal;font-variant-position:normal;font-variant-caps:normal;font-variant-numeric:normal;font-variant-alternates:normal;font-feature-settings:normal;text-indent:0;text-align:start;text-decoration:none;text-decoration-line:none;text-decoration-style:solid;text-decoration-color:#000000;letter-spacing:normal;word-spacing:normal;text-transform:none;writing-mode:lr-tb;direction:ltr;text-orientation:mixed;dominant-baseline:auto;baseline-shift:baseline;text-anchor:start;white-space:normal;shape-padding:0;clip-rule:nonzero;display:inline;overflow:visible;visibility:visible;isolation:auto;mix-blend-mode:normal;color-interpolation:sRGB;color-interpolation-filters:linearRGB;solid-color:#000000;solid-opacity:1;vector-effect:none;fill:#ffffff;fill-opacity:1;fill-rule:nonzero;stroke:none;stroke-width:2.28499;stroke-linecap:round;stroke-linejoin:miter;stroke-miterlimit:4;stroke-dasharray:none;stroke-dashoffset:0;stroke-opacity:1;paint-order:stroke markers fill;color-rendering:auto;image-rendering:auto;shape-rendering:auto;text-rendering:auto;enable-background:accumulate"
       sodipodi:nodetypes="sccssccss" />
  </g>
</svg>
