<?xml version="1.0" encoding="UTF-8" standalone="no"?>
<svg
   xmlns:dc="http://purl.org/dc/elements/1.1/"
   xmlns:cc="http://creativecommons.org/ns#"
   xmlns:rdf="http://www.w3.org/1999/02/22-rdf-syntax-ns#"
   xmlns:svg="http://www.w3.org/2000/svg"
   xmlns="http://www.w3.org/2000/svg"
   id="svg8"
   version="1.1"
   viewBox="0 0 170.07874 36.759375"
   height="9.7259178mm"
   width="45mm">
  <defs
     id="defs2" />
  <metadata
     id="metadata5">
    <rdf:RDF>
      <cc:Work
         rdf:about="">
        <dc:format>image/svg+xml</dc:format>
        <dc:type
           rdf:resource="http://purl.org/dc/dcmitype/StillImage" />
        <dc:title></dc:title>
      </cc:Work>
    </rdf:RDF>
  </metadata>
  <g
     style="stroke-width:4.68141079"
     transform="matrix(0.21361082,0,0,0.21361082,0,-25.61006)"
     id="g868">
    <g
       style="stroke-width:4.68141079"
       id="g882">
      <path
         id="path4683-8-5-2"
         style="font-style:normal;font-variant:normal;font-weight:normal;font-stretch:normal;font-size:395.09683228px;line-height:125%;font-family:Vegur;-inkscape-font-specification:Vegur;letter-spacing:0px;word-spacing:0px;fill:#ffffff;fill-opacity:1;stroke:none;stroke-width:1.41818738px;stroke-linecap:butt;stroke-linejoin:miter;stroke-opacity:1"
         d="M 552.64185,175.23687 H 541.9535 v 48.50867 c 0,6.8515 0.27406,17.67689 0.68515,29.73554 h -0.41109 c -5.34417,-10.0032 -11.3735,-19.59531 -15.62144,-26.17276 l -33.57238,-52.07145 h -14.66223 v 92.90643 h 10.68835 v -48.50867 c 0,-6.85151 -0.27406,-19.73234 -0.68515,-31.65396 h 0.41109 c 7.94775,13.84004 12.60678,21.51373 16.99174,28.09118 l 33.57239,52.07145 h 13.29192 z" />
      <path
         id="path4685-9-4-4"
         style="font-style:normal;font-variant:normal;font-weight:normal;font-stretch:normal;font-size:395.09683228px;line-height:125%;font-family:Vegur;-inkscape-font-specification:Vegur;letter-spacing:0px;word-spacing:0px;fill:#ffffff;fill-opacity:1;stroke:none;stroke-width:1.41818738px;stroke-linecap:butt;stroke-linejoin:miter;stroke-opacity:1"
         d="m 572.99084,268.1433 h 11.51052 v -66.32259 h -11.51052 z m 5.75524,-76.05173 c 3.97387,0 7.12559,-3.15169 7.12559,-7.12556 0,-3.97388 -3.15172,-7.12557 -7.12559,-7.12557 -3.97387,0 -7.12555,3.15169 -7.12555,7.12557 0,3.97387 3.15168,7.12556 7.12555,7.12556 z" />
      <path
         id="path4687-6-2-7"
         style="font-style:normal;font-variant:normal;font-weight:normal;font-stretch:normal;font-size:395.09683228px;line-height:125%;font-family:Vegur;-inkscape-font-specification:Vegur;letter-spacing:0px;word-spacing:0px;fill:#ffffff;fill-opacity:1;stroke:none;stroke-width:1.41818738px;stroke-linecap:butt;stroke-linejoin:miter;stroke-opacity:1"
         d="m 656.2131,201.82071 h -13.1549 l -16.16955,24.39137 h -0.41109 L 610.8561,201.82071 h -14.25111 l 23.7062,32.33912 v 0.41109 L 595.7828,268.1433 h 13.1549 l 17.2658,-26.30978 h 0.41109 l 17.2658,26.30978 h 14.25111 l -25.07651,-34.1205 v -0.41109 z" />
      <path
         id="path4680-6-9-6"
         style="font-style:normal;font-variant:normal;font-weight:normal;font-stretch:normal;font-size:367.48727417px;line-height:125%;font-family:Vegur;-inkscape-font-specification:Vegur;letter-spacing:0px;word-spacing:0px;fill:#ffffff;fill-opacity:1;stroke:none;stroke-width:1.41818738px;stroke-linecap:butt;stroke-linejoin:miter;stroke-opacity:1"
         d="m 700.73596,176.89149 c -21.81015,0 -39.74293,17.56285 -39.74293,46.78957 0,29.22673 17.93278,46.78957 39.74293,46.78957 21.81015,0 39.74296,-17.56284 39.74296,-46.78957 0,-29.22672 -17.93281,-46.78957 -39.74296,-46.78957 z m 0,9.1166 c 16.23645,0 28.59553,13.40675 28.59553,37.67297 0,24.26623 -12.35908,37.67298 -28.59553,37.67298 -16.23645,0 -28.59553,-13.40675 -28.59553,-37.67298 0,-24.26622 12.35908,-37.67297 28.59553,-37.67297 z" />
      <path
         id="path4677-0-9-7"
         style="font-style:normal;font-variant:normal;font-weight:normal;font-stretch:normal;font-size:386.55480957px;line-height:125%;font-family:Vegur;-inkscape-font-specification:Vegur;letter-spacing:0px;word-spacing:0px;fill:#ffffff;fill-opacity:1;stroke:none;stroke-width:1.41818738px;stroke-linecap:butt;stroke-linejoin:miter;stroke-opacity:1"
         d="m 744.99468,200.63564 c 0,12.87049 6.70336,19.842 22.25521,26.14318 11.93202,4.82643 16.75842,9.11659 16.75842,17.96505 0,10.7254 -8.71436,16.0881 -20.24417,16.0881 -6.03305,0 -12.8705,-0.93847 -20.37829,-3.48575 l -1.20661,9.25066 c 6.56931,2.41322 13.80898,3.35169 21.0486,3.35169 17.96507,0 32.98063,-9.1166 32.98063,-27.48385 0,-12.73642 -7.77593,-18.90352 -23.46183,-25.2047 -10.45724,-4.15609 -15.55181,-8.58032 -15.55181,-17.83098 0,-8.98252 7.77592,-13.94302 17.56285,-13.94302 5.76489,0 12.06607,1.47474 16.4903,3.21762 l 1.20661,-9.1166 c -5.09458,-2.14508 -11.39576,-3.21762 -18.36725,-3.21762 -16.49033,0 -29.09266,9.5188 -29.09266,24.26622 z" />
      <path
         id="path2870"
         d="m 62.60085,175.23871 -3.07227,86.85743 10.47266,6.04687 1.91797,-53.71484 c 0.27405,-8.22165 0.13794,-15.89422 -0.41016,-23.8418 h 0.41016 c 2.0554,7.81055 4.65861,15.62015 7.94726,23.8418 l 20.41797,50.97461 h 11.09961 l 20.68945,-50.97461 c 3.28866,-8.22165 6.03054,-16.16931 8.08594,-24.25391 h 0.41016 c -0.41108,7.94758 -0.54749,16.03226 -0.27344,24.25391 l 1.91797,53.71484 h 11.50976 l -3.28711,-92.9043 h -14.11523 l -19.1836,48.09571 c -3.83676,9.5919 -7.12479,17.81371 -10.6875,30.2832 h -0.4121 c -3.28866,-12.46949 -6.57566,-21.10238 -10.2754,-30.2832 L 76.8528,175.23871 Z"
         style="font-style:normal;font-variant:normal;font-weight:normal;font-stretch:normal;font-size:127.73706055px;line-height:1.25;font-family:Vegur602;-inkscape-font-specification:Vegur602;letter-spacing:0px;word-spacing:0px;fill:#ffffff;fill-opacity:1;stroke:none;stroke-width:46.55730438;stroke-miterlimit:4;stroke-dasharray:none;stroke-opacity:1;paint-order:stroke fill markers" />
      <path
         id="path2872"
         style="font-style:normal;font-variant:normal;font-weight:normal;font-stretch:normal;font-size:127.73706055px;line-height:1.25;font-family:Vegur602;-inkscape-font-specification:Vegur602;letter-spacing:0px;word-spacing:0px;fill:#ffffff;fill-opacity:1;stroke:none;stroke-width:46.55730438;stroke-miterlimit:4;stroke-dasharray:none;stroke-opacity:1;paint-order:stroke fill markers"
         d="m 200.08911,200.45183 c -20.00598,0 -31.92735,15.07299 -31.92735,34.53087 0,19.45787 11.92137,34.53088 31.92735,34.53088 20.00598,0 31.92736,-15.07301 31.92736,-34.53088 0,-19.45788 -11.92138,-34.53087 -31.92736,-34.53087 z m 0,60.29199 c -13.83975,0 -19.86895,-11.92137 -19.86895,-25.76112 0,-13.83976 6.0292,-25.76113 19.86895,-25.76113 13.83976,0 19.86896,11.92137 19.86896,25.76113 0,13.83975 -6.0292,25.76112 -19.86896,25.76112 z" />
      <path
         id="path2874"
         style="font-style:normal;font-variant:normal;font-weight:normal;font-stretch:normal;font-size:127.73706055px;line-height:1.25;font-family:Vegur602;-inkscape-font-specification:Vegur602;letter-spacing:0px;word-spacing:0px;fill:#ffffff;fill-opacity:1;stroke:none;stroke-width:46.55730438;stroke-miterlimit:4;stroke-dasharray:none;stroke-opacity:1;paint-order:stroke fill markers"
         d="m 259.94648,257.86626 c 4.93298,8.0846 11.92137,11.64732 21.37625,11.64732 17.81355,0 29.87195,-14.79896 29.87195,-35.76413 0,-20.00598 -10.82516,-33.29762 -29.04979,-33.29762 -9.72893,0 -16.99138,4.38486 -22.19841,11.64732 h -0.27406 v -42.61549 h -11.51029 v 98.65964 h 11.09921 l 0.41108,-10.27704 z m -0.27406,-26.85735 c 0,-11.51029 7.12542,-21.78734 18.90977,-21.78734 13.15461,0 20.55409,10.41408 20.55409,25.6241 0,15.75814 -7.12542,25.89815 -20.28004,25.89815 -10.68813,0 -19.18382,-9.04379 -19.18382,-21.78733 z" />
      <path
         id="path2876"
         style="font-style:normal;font-variant:normal;font-weight:normal;font-stretch:normal;font-size:127.73706055px;line-height:1.25;font-family:Vegur602;-inkscape-font-specification:Vegur602;letter-spacing:0px;word-spacing:0px;fill:#ffffff;fill-opacity:1;stroke:none;stroke-width:46.55730438;stroke-miterlimit:4;stroke-dasharray:none;stroke-opacity:1;paint-order:stroke fill markers"
         d="m 327.1134,268.1433 h 11.51029 V 201.8221 H 327.1134 Z m 5.75515,-76.05013 c 3.97379,0 7.12541,-3.15164 7.12541,-7.12542 0,-3.97379 -3.15162,-7.12542 -7.12541,-7.12542 -3.9738,0 -7.12542,3.15163 -7.12542,7.12542 0,3.97378 3.15162,7.12542 7.12542,7.12542 z" />
      <path
         id="path2878"
         style="font-style:normal;font-variant:normal;font-weight:normal;font-stretch:normal;font-size:127.73706055px;line-height:1.25;font-family:Vegur602;-inkscape-font-specification:Vegur602;letter-spacing:0px;word-spacing:0px;fill:#ffffff;fill-opacity:1;stroke:none;stroke-width:46.55730438;stroke-miterlimit:4;stroke-dasharray:none;stroke-opacity:1;paint-order:stroke fill markers"
         d="M 371.0071,268.1433 V 169.48366 H 359.49681 V 268.1433 Z" />
      <path
         id="path2880"
         style="font-style:normal;font-variant:normal;font-weight:normal;font-stretch:normal;font-size:127.73706055px;line-height:1.25;font-family:Vegur602;-inkscape-font-specification:Vegur602;letter-spacing:0px;word-spacing:0px;fill:#ffffff;fill-opacity:1;stroke:none;stroke-width:46.55730438;stroke-miterlimit:4;stroke-dasharray:none;stroke-opacity:1;paint-order:stroke fill markers"
         d="m 444.77274,237.58622 c 0.27405,-2.4665 0.41108,-4.5219 0.41108,-6.57731 0,-16.99138 -8.90677,-30.55708 -26.03518,-30.55708 -18.49869,0 -32.06439,15.34705 -32.06439,35.76411 0,22.47248 13.5657,33.29764 32.06439,33.29764 8.22164,0 14.38787,-1.23326 20.82815,-3.83677 l -1.09623,-8.76974 c -5.07,2.46648 -12.33245,3.83675 -18.08759,3.83675 -13.29164,0 -21.92437,-8.0846 -22.19842,-23.1576 z m -26.58329,-28.36465 c 10.14002,0 15.62111,8.35866 15.62111,19.32085 h -34.6679 c 1.64432,-11.64733 8.0846,-19.32085 19.04679,-19.32085 z" />
      <path
         id="use7631"
         d="m 77.43288,119.89492 c -4.820166,0.12175 -9.454205,3.20761 -11.992187,7.60352 L 2.1281873,237.16055 c -3.609609,6.25198 -2.806248,14.85348 3.787109,18.66015 L 66.79421,290.96719 c 0.75261,0.43452 1.523533,0.76122 2.300779,1.00975 l 0.453129,-12.51171 -57.962899,-33.46484 c -0.06752,-0.0389 -0.790996,-1.17404 0.361331,-3.16993 L 75.260999,133.16641 c 1.152341,-1.9959 2.497021,-1.93544 2.564451,-1.89649 l 58.52736,33.78907 h 13.74609 c -0.56491,-3.42622 -2.41432,-6.54862 -5.72656,-8.46094 L 83.49539,121.4496 c -1.64834,-0.95166 -3.3761,-1.4392 -5.09572,-1.53905 -0.32242,-0.0187 -0.64545,-0.0237 -0.96679,-0.0156 z"
         style="color:#000000;font-style:normal;font-variant:normal;font-weight:normal;font-stretch:normal;font-size:medium;line-height:normal;font-family:sans-serif;font-variant-ligatures:normal;font-variant-position:normal;font-variant-caps:normal;font-variant-numeric:normal;font-variant-alternates:normal;font-feature-settings:normal;text-indent:0;text-align:start;text-decoration:none;text-decoration-line:none;text-decoration-style:solid;text-decoration-color:#000000;letter-spacing:normal;word-spacing:normal;text-transform:none;writing-mode:lr-tb;direction:ltr;text-orientation:mixed;dominant-baseline:auto;baseline-shift:baseline;text-anchor:start;white-space:normal;shape-padding:0;clip-rule:nonzero;display:inline;overflow:visible;visibility:visible;opacity:1;isolation:auto;mix-blend-mode:normal;color-interpolation:sRGB;color-interpolation-filters:linearRGB;solid-color:#000000;solid-opacity:1;vector-effect:none;fill:#ffffff;fill-opacity:1;fill-rule:nonzero;stroke:none;stroke-width:53.08056641;stroke-linecap:square;stroke-linejoin:round;stroke-miterlimit:4;stroke-dasharray:none;stroke-dashoffset:0;stroke-opacity:1;paint-order:normal;color-rendering:auto;image-rendering:auto;shape-rendering:auto;text-rendering:auto;enable-background:accumulate" />
    </g>
  </g>
</svg>
