<?xml version="1.0" encoding="UTF-8" standalone="no"?>
<svg
   xmlns:dc="http://purl.org/dc/elements/1.1/"
   xmlns:cc="http://creativecommons.org/ns#"
   xmlns:rdf="http://www.w3.org/1999/02/22-rdf-syntax-ns#"
   xmlns:svg="http://www.w3.org/2000/svg"
   xmlns="http://www.w3.org/2000/svg"
   id="svg8"
   version="1.1"
   viewBox="0 0 844.20844 220.08574"
   height="220.08574"
   width="844.20844">
  <defs
     id="defs2" />
  <metadata
     id="metadata5">
    <rdf:RDF>
      <cc:Work
         rdf:about="">
        <dc:format>image/svg+xml</dc:format>
        <dc:type
           rdf:resource="http://purl.org/dc/dcmitype/StillImage" />
        <dc:title></dc:title>
      </cc:Work>
    </rdf:RDF>
  </metadata>
  <g
     transform="translate(-537.89577,-475.33983)"
     id="layer1">
    <g
       id="g1772-2-3"
       transform="matrix(1.07341,0,0,1.07341,484.66983,419.42346)">
      <g
         id="g2868">
        <g
           id="g1672-1-4"
           transform="matrix(0.32310743,0,0,0.32310743,316.48912,90.171826)"
           style="stroke-width:0.8734625">
          <g
             style="display:none;stroke-width:0.8734625"
             id="layer7-3-3-6">
            <rect
               y="-957.77832"
               x="132.5822"
               height="483.7439"
               width="1543.4283"
               id="rect5389-1-0-1"
               style="color:#000000;clip-rule:nonzero;display:inline;overflow:visible;visibility:visible;opacity:1;isolation:auto;mix-blend-mode:normal;color-interpolation:sRGB;color-interpolation-filters:linearRGB;solid-color:#000000;solid-opacity:1;fill:#ffffff;fill-opacity:1;fill-rule:evenodd;stroke:none;stroke-width:2.62038755;stroke-linecap:butt;stroke-linejoin:round;stroke-miterlimit:4;stroke-dasharray:none;stroke-dashoffset:0;stroke-opacity:1;marker:none;color-rendering:auto;image-rendering:auto;shape-rendering:auto;text-rendering:auto;enable-background:accumulate"
               transform="translate(-132.5822,958.04022)" />
          </g>
          <g
             transform="translate(-132.5822,958.04022)"
             style="display:none;opacity:0.51599995;stroke-width:0.8734625"
             id="layer5-2-9-5">
            <rect
               style="color:#000000;clip-rule:nonzero;display:inline;overflow:visible;visibility:visible;opacity:1;isolation:auto;mix-blend-mode:normal;color-interpolation:sRGB;color-interpolation-filters:linearRGB;solid-color:#000000;solid-opacity:1;fill:#d4d4d4;fill-opacity:1;fill-rule:evenodd;stroke:none;stroke-width:2.62038755;stroke-linecap:butt;stroke-linejoin:round;stroke-miterlimit:4;stroke-dasharray:none;stroke-dashoffset:0;stroke-opacity:1;marker:none;color-rendering:auto;image-rendering:auto;shape-rendering:auto;text-rendering:auto;enable-background:accumulate"
               id="rect5350-7-9-6"
               width="1543.4283"
               height="483.7439"
               x="132.5822"
               y="-957.77832" />
            <rect
               y="-933.38721"
               x="155.77646"
               height="435.68069"
               width="1496.443"
               id="rect5346-7-1-1"
               style="color:#000000;clip-rule:nonzero;display:inline;overflow:visible;visibility:visible;opacity:1;isolation:auto;mix-blend-mode:normal;color-interpolation:sRGB;color-interpolation-filters:linearRGB;solid-color:#000000;solid-opacity:1;fill:#9b9b9b;fill-opacity:1;fill-rule:evenodd;stroke:none;stroke-width:2.62038755;stroke-linecap:butt;stroke-linejoin:round;stroke-miterlimit:4;stroke-dasharray:none;stroke-dashoffset:0;stroke-opacity:1;marker:none;color-rendering:auto;image-rendering:auto;shape-rendering:auto;text-rendering:auto;enable-background:accumulate" />
            <rect
               style="color:#000000;clip-rule:nonzero;display:inline;overflow:visible;visibility:visible;opacity:1;isolation:auto;mix-blend-mode:normal;color-interpolation:sRGB;color-interpolation-filters:linearRGB;solid-color:#000000;solid-opacity:1;fill:#848484;fill-opacity:1;fill-rule:evenodd;stroke:none;stroke-width:2.62038755;stroke-linecap:butt;stroke-linejoin:round;stroke-miterlimit:4;stroke-dasharray:none;stroke-dashoffset:0;stroke-opacity:1;marker:none;color-rendering:auto;image-rendering:auto;shape-rendering:auto;text-rendering:auto;enable-background:accumulate"
               id="rect5348-9-3-7"
               width="1492.5731"
               height="272.58423"
               x="159.02695"
               y="-851.65918" />
          </g>
          <g
             transform="translate(-132.5822,958.04022)"
             style="display:none;stroke-width:0.8734625"
             id="layer6-8-4-2">
            <rect
               style="color:#000000;clip-rule:nonzero;display:inline;overflow:visible;visibility:visible;opacity:1;isolation:auto;mix-blend-mode:normal;color-interpolation:sRGB;color-interpolation-filters:linearRGB;solid-color:#000000;solid-opacity:1;fill:#5c201e;fill-opacity:1;fill-rule:evenodd;stroke:none;stroke-width:2.62038755;stroke-linecap:butt;stroke-linejoin:round;stroke-miterlimit:4;stroke-dasharray:none;stroke-dashoffset:0;stroke-opacity:1;marker:none;color-rendering:auto;image-rendering:auto;shape-rendering:auto;text-rendering:auto;enable-background:accumulate"
               id="rect5379-1-5-2"
               width="550.41602"
               height="484.30399"
               x="132.65129"
               y="-958.02759" />
            <rect
               y="-933.02759"
               x="156.12303"
               height="434.30405"
               width="501.94415"
               id="rect5372-0-8-9"
               style="color:#000000;clip-rule:nonzero;display:inline;overflow:visible;visibility:visible;opacity:1;isolation:auto;mix-blend-mode:normal;color-interpolation:sRGB;color-interpolation-filters:linearRGB;solid-color:#000000;solid-opacity:1;fill:#c24a46;fill-opacity:1;fill-rule:evenodd;stroke:none;stroke-width:2.62038755;stroke-linecap:butt;stroke-linejoin:round;stroke-miterlimit:4;stroke-dasharray:none;stroke-dashoffset:0;stroke-opacity:1;marker:none;color-rendering:auto;image-rendering:auto;shape-rendering:auto;text-rendering:auto;enable-background:accumulate" />
            <rect
               y="-958.04022"
               x="658.02826"
               height="24.939611"
               width="24.939611"
               id="rect5381-7-5-2"
               style="color:#000000;clip-rule:nonzero;display:inline;overflow:visible;visibility:visible;opacity:1;isolation:auto;mix-blend-mode:normal;color-interpolation:sRGB;color-interpolation-filters:linearRGB;solid-color:#000000;solid-opacity:1;fill:#d98d8a;fill-opacity:1;fill-rule:evenodd;stroke:none;stroke-width:2.62038755;stroke-linecap:butt;stroke-linejoin:round;stroke-miterlimit:4;stroke-dasharray:none;stroke-dashoffset:0;stroke-opacity:1;marker:none;color-rendering:auto;image-rendering:auto;shape-rendering:auto;text-rendering:auto;enable-background:accumulate" />
          </g>
          <g
             transform="translate(-132.5822,958.04022)"
             id="g5329-1-0-8"
             style="display:inline;stroke-width:0.8734625">
            <g
               id="text5407-2-4-1"
               style="font-style:normal;font-variant:normal;font-weight:normal;font-stretch:normal;font-size:395.09683228px;line-height:125%;font-family:Carlito;-inkscape-font-specification:Carlito;letter-spacing:0px;word-spacing:0px;display:inline;opacity:1;fill:#000000;fill-opacity:1;stroke:none;stroke-width:0.8734625px;stroke-linecap:butt;stroke-linejoin:miter;stroke-opacity:1"
               aria-label="Nix">
              <path
                 id="path4683-8-5-2"
                 style="font-style:normal;font-variant:normal;font-weight:normal;font-stretch:normal;font-family:Vegur;-inkscape-font-specification:Vegur;fill:#000000;fill-opacity:1;stroke:none;stroke-width:0.8734625px"
                 d="m 969.15319,-847.11833 h -30.81755 v 139.86428 c 0,19.75484 0.79019,50.96749 1.97548,85.73601 h -1.18529 c -15.40877,-28.84207 -32.79303,-56.49884 -45.04104,-75.46349 l -96.79872,-150.1368 h -42.27536 v 267.87565 h 30.81755 v -139.86427 c 0,-19.75485 -0.79019,-56.89395 -1.97548,-91.26737 h 1.18529 c 22.91561,39.90478 36.34891,62.0302 48.99201,80.99485 l 96.79872,150.13679 h 38.32439 z" />
              <path
                 id="path4685-9-4-4"
                 style="font-style:normal;font-variant:normal;font-weight:normal;font-stretch:normal;font-family:Vegur;-inkscape-font-specification:Vegur;fill:#000000;fill-opacity:1;stroke:none;stroke-width:0.8734625px"
                 d="m 1027.8251,-579.24268 h 33.1881 v -191.22686 h -33.1881 z m 16.594,-219.27874 c 11.4578,0 20.5451,-9.08722 20.5451,-20.54503 0,-11.45781 -9.0873,-20.54504 -20.5451,-20.54504 -11.4578,0 -20.545,9.08723 -20.545,20.54504 0,11.45781 9.0872,20.54503 20.545,20.54503 z" />
              <path
                 id="path4687-6-2-7"
                 style="font-style:normal;font-variant:normal;font-weight:normal;font-stretch:normal;font-family:Vegur;-inkscape-font-specification:Vegur;fill:#000000;fill-opacity:1;stroke:none;stroke-width:0.8734625px"
                 d="m 1267.7785,-770.46954 h -37.9293 l -46.6214,70.32723 h -1.1853 l -45.0411,-70.32723 h -41.09 l 68.3517,93.24285 v 1.18529 l -70.7223,96.79872 h 37.9293 l 49.7822,-75.85859 h 1.1853 l 49.7822,75.85859 h 41.09 l -72.3027,-98.37911 v -1.18529 z" />
            </g>
            <g
               id="text5356-0-4-8"
               style="font-style:normal;font-variant:normal;font-weight:normal;font-stretch:normal;font-size:367.48727417px;line-height:125%;font-family:Carlito;-inkscape-font-specification:Carlito;letter-spacing:0px;word-spacing:0px;display:inline;opacity:1;fill:#000000;fill-opacity:1;stroke:none;stroke-width:0.8734625px;stroke-linecap:butt;stroke-linejoin:miter;stroke-opacity:1"
               transform="scale(0.95067318,1.0518862)"
               aria-label="O">
              <path
                 id="path4680-6-9-6"
                 style="font-style:normal;font-variant:normal;font-weight:normal;font-stretch:normal;font-family:Vegur;-inkscape-font-specification:Vegur;fill:#000000;fill-opacity:1;stroke:none;stroke-width:0.8734625px"
                 d="m 1468.5915,-800.79725 c -66.1477,0 -120.5358,48.14083 -120.5358,128.25306 0,80.11223 54.3881,128.25306 120.5358,128.25306 66.1477,0 120.5359,-48.14083 120.5359,-128.25306 0,-80.11223 -54.3882,-128.25306 -120.5359,-128.25306 z m 0,24.98914 c 49.2433,0 86.727,36.74872 86.727,103.26392 0,66.5152 -37.4837,103.26392 -86.727,103.26392 -49.2433,0 -86.727,-36.74872 -86.727,-103.26392 0,-66.5152 37.4837,-103.26392 86.727,-103.26392 z" />
            </g>
            <g
               id="text5364-4-9-3"
               style="font-style:normal;font-variant:normal;font-weight:normal;font-stretch:normal;font-size:386.55480957px;line-height:125%;font-family:Carlito;-inkscape-font-specification:Carlito;letter-spacing:0px;word-spacing:0px;display:inline;opacity:1;fill:#000000;fill-opacity:1;stroke:none;stroke-width:0.8734625px;stroke-linecap:butt;stroke-linejoin:miter;stroke-opacity:1"
               aria-label="S">
              <path
                 id="path4677-0-9-7"
                 style="font-style:normal;font-variant:normal;font-weight:normal;font-stretch:normal;font-family:Vegur;-inkscape-font-specification:Vegur;fill:#000000;fill-opacity:1;stroke:none;stroke-width:0.8734625px"
                 d="m 1523.761,-773.88643 c 0,37.10927 19.3277,57.21012 64.1681,75.37819 34.4034,13.91598 48.3193,26.28573 48.3193,51.79835 0,30.92438 -25.126,46.38657 -58.3697,46.38657 -17.395,0 -37.1093,-2.70588 -58.7564,-10.05042 l -3.479,26.67228 c 18.9412,6.95799 39.8152,9.66387 60.6891,9.66387 51.7984,0 95.0925,-26.28573 95.0925,-79.24374 0,-36.7227 -22.4202,-54.50422 -67.6471,-72.6723 -30.1512,-11.9832 -44.8403,-24.73951 -44.8403,-51.41179 0,-25.89917 22.4202,-40.2017 50.6387,-40.2017 16.6218,0 34.7899,4.2521 47.5462,9.27732 l 3.479,-26.28573 c -14.6891,-6.18488 -32.8572,-9.27732 -52.958,-9.27732 -47.5463,0 -83.8824,27.4454 -83.8824,69.96642 z" />
            </g>
          </g>
        </g>
        <g
           transform="matrix(0.99936576,0,0,0.99936576,0.14341631,0.16704663)"
           id="text821-9-8-7"
           style="font-style:normal;font-weight:normal;font-size:127.73706055px;line-height:1.25;font-family:sans-serif;letter-spacing:0px;word-spacing:0px;fill:#000000;fill-opacity:1;stroke:none;stroke-width:9.27087975;stroke-miterlimit:4;stroke-dasharray:none;stroke-opacity:1;paint-order:stroke fill markers"
           aria-label="Mobile">
          <path
             id="path2870"
             transform="matrix(0.93220171,0,0,0.93220171,-453.39325,-157.63987)"
             d="m 626.04102,304.18945 -3.07227,86.85743 10.47266,6.04687 1.91797,-53.71484 c 0.27405,-8.22165 0.13794,-15.89422 -0.41016,-23.8418 h 0.41016 c 2.0554,7.81055 4.65861,15.62015 7.94726,23.8418 l 20.41797,50.97461 h 11.09961 l 20.68945,-50.97461 c 3.28866,-8.22165 6.03054,-16.16931 8.08594,-24.25391 h 0.41016 c -0.41108,7.94758 -0.54749,16.03226 -0.27344,24.25391 l 1.91797,53.71484 h 11.50976 l -3.28711,-92.9043 h -14.11523 l -19.1836,48.09571 c -3.83676,9.5919 -7.12479,17.81371 -10.6875,30.2832 h -0.4121 c -3.28866,-12.46949 -6.57566,-21.10238 -10.2754,-30.2832 l -18.91015,-48.09571 z"
             style="font-style:normal;font-variant:normal;font-weight:normal;font-stretch:normal;font-family:Vegur602;-inkscape-font-specification:Vegur602;fill:#000000;fill-opacity:1;stroke:none;stroke-width:9.9451437;stroke-miterlimit:4;stroke-dasharray:none;stroke-opacity:1;paint-order:stroke fill markers" />
          <path
             id="path2872"
             style="font-style:normal;font-variant:normal;font-weight:normal;font-stretch:normal;font-family:Vegur602;-inkscape-font-specification:Vegur602;fill:#000000;fill-opacity:1;stroke:none;stroke-width:9.27087975;stroke-miterlimit:4;stroke-dasharray:none;stroke-opacity:1;paint-order:stroke fill markers"
             d="m 258.37006,149.42977 c -18.64961,0 -29.76273,14.05107 -29.76273,32.18974 0,18.13866 11.11312,32.18974 29.76273,32.18974 18.64961,0 29.76274,-14.05108 29.76274,-32.18974 0,-18.13867 -11.11313,-32.18974 -29.76274,-32.18974 z m 0,56.2043 c -12.90144,0 -18.52187,-11.11312 -18.52187,-24.01456 0,-12.90145 5.62043,-24.01457 18.52187,-24.01457 12.90145,0 18.52188,11.11312 18.52188,24.01457 0,12.90144 -5.62043,24.01456 -18.52188,24.01456 z" />
          <path
             id="path2874"
             style="font-style:normal;font-variant:normal;font-weight:normal;font-stretch:normal;font-family:Vegur602;-inkscape-font-specification:Vegur602;fill:#000000;fill-opacity:1;stroke:none;stroke-width:9.27087975;stroke-miterlimit:4;stroke-dasharray:none;stroke-opacity:1;paint-order:stroke fill markers"
             d="m 314.1692,202.9516 c 4.59853,7.53648 11.11312,10.85765 19.92698,10.85765 16.60582,0 27.84668,-13.79561 27.84668,-33.33938 0,-18.64961 -10.09123,-31.0401 -27.08026,-31.0401 -9.06933,0 -15.8394,4.08758 -20.6934,10.85765 h -0.25548 v -39.72623 h -10.72991 v 91.97069 h 10.3467 l 0.38321,-9.58028 z m -0.25548,-25.03647 c 0,-10.72991 6.64233,-20.31019 17.62772,-20.31019 12.26275,0 19.16056,9.70802 19.16056,23.88683 0,14.68976 -6.64233,24.1423 -18.90509,24.1423 -9.96349,0 -17.88319,-8.43064 -17.88319,-20.31019 z" />
          <path
             id="path2876"
             style="font-style:normal;font-variant:normal;font-weight:normal;font-stretch:normal;font-family:Vegur602;-inkscape-font-specification:Vegur602;fill:#000000;fill-opacity:1;stroke:none;stroke-width:9.27087975;stroke-miterlimit:4;stroke-dasharray:none;stroke-opacity:1;paint-order:stroke fill markers"
             d="m 376.78232,212.53188 h 10.72991 v -61.82474 h -10.72991 z m 5.36496,-70.89407 c 3.70437,0 6.64232,-2.93796 6.64232,-6.64233 0,-3.70437 -2.93795,-6.64233 -6.64232,-6.64233 -3.70438,0 -6.64233,2.93796 -6.64233,6.64233 0,3.70437 2.93795,6.64233 6.64233,6.64233 z" />
          <path
             id="path2878"
             style="font-style:normal;font-variant:normal;font-weight:normal;font-stretch:normal;font-family:Vegur602;-inkscape-font-specification:Vegur602;fill:#000000;fill-opacity:1;stroke:none;stroke-width:9.27087975;stroke-miterlimit:4;stroke-dasharray:none;stroke-opacity:1;paint-order:stroke fill markers"
             d="m 417.7001,212.53188 v -91.97069 h -10.72991 v 91.97069 z" />
          <path
             id="path2880"
             style="font-style:normal;font-variant:normal;font-weight:normal;font-stretch:normal;font-family:Vegur602;-inkscape-font-specification:Vegur602;fill:#000000;fill-opacity:1;stroke:none;stroke-width:9.27087975;stroke-miterlimit:4;stroke-dasharray:none;stroke-opacity:1;paint-order:stroke fill markers"
             d="m 486.46456,184.04651 c 0.25547,-2.29927 0.38321,-4.21532 0.38321,-6.13138 0,-15.83939 -8.30291,-28.48536 -24.27004,-28.48536 -17.24451,0 -29.89048,14.30655 -29.89048,33.33937 0,20.94888 12.64597,31.04011 29.89048,31.04011 7.66422,0 13.41239,-1.14964 19.41603,-3.57664 l -1.0219,-8.17517 c -4.72627,2.29926 -11.49633,3.57663 -16.86129,3.57663 -12.39049,0 -20.43793,-7.53648 -20.6934,-21.58756 z m -24.78099,-26.44157 c 9.45254,0 14.56202,7.79196 14.56202,18.01093 h -32.31747 c 1.53284,-10.85766 7.53648,-18.01093 17.75545,-18.01093 z" />
        </g>
      </g>
      <path
         id="use7631"
         d="m 144.08178,74.45438 c -4.49052,0.11342 -8.80764,2.98824 -11.17205,7.08352 L 73.927136,183.70027 c -3.36275,5.82441 -2.61433,13.83766 3.52811,17.38399 l 56.715434,32.74284 c 0.70114,0.40481 1.41934,0.70916 2.14343,0.9407 l 0.42214,-11.65604 -53.998844,-31.1762 c -0.0629,-0.0362 -0.7369,-1.09375 0.33662,-2.95314 L 142.05843,86.81824 c 1.07353,-1.8594 2.32625,-1.80308 2.38907,-1.76679 l 54.5247,31.47825 h 12.806 c -0.52627,-3.1919 -2.2492,-6.10076 -5.33492,-7.8823 L 149.72967,75.90274 c -1.53561,-0.88658 -3.14521,-1.34078 -4.74722,-1.4338 -0.30037,-0.0174 -0.60131,-0.0221 -0.90067,-0.0145 z"
         style="color:#000000;font-style:normal;font-variant:normal;font-weight:normal;font-stretch:normal;font-size:medium;line-height:normal;font-family:sans-serif;font-variant-ligatures:normal;font-variant-position:normal;font-variant-caps:normal;font-variant-numeric:normal;font-variant-alternates:normal;font-feature-settings:normal;text-indent:0;text-align:start;text-decoration:none;text-decoration-line:none;text-decoration-style:solid;text-decoration-color:#000000;letter-spacing:normal;word-spacing:normal;text-transform:none;writing-mode:lr-tb;direction:ltr;text-orientation:mixed;dominant-baseline:auto;baseline-shift:baseline;text-anchor:start;white-space:normal;shape-padding:0;clip-rule:nonzero;display:inline;overflow:visible;visibility:visible;opacity:1;isolation:auto;mix-blend-mode:normal;color-interpolation:sRGB;color-interpolation-filters:linearRGB;solid-color:#000000;solid-opacity:1;vector-effect:none;fill:#5277c3;fill-opacity:1;fill-rule:nonzero;stroke:none;stroke-width:10.56314278;stroke-linecap:square;stroke-linejoin:round;stroke-miterlimit:4;stroke-dasharray:none;stroke-dashoffset:0;stroke-opacity:1;paint-order:normal;color-rendering:auto;image-rendering:auto;shape-rendering:auto;text-rendering:auto;enable-background:accumulate" />
    </g>
  </g>
</svg>
